Coordinates
version=1
nRows=11
nColumns=63
inDegrees=yes

Units are S.I. units (second, meters, Newtons, ...)
If the header above contains a line with 'inDegrees', this indicates whether rotational values are in degrees (yes) or radians (no).

endheader
time	pelvis_tilt	pelvis_list	pelvis_rotation	pelvis_tx	pelvis_ty	pelvis_tz	hip_flexion_r	hip_adduction_r	hip_rotation_r	knee_angle_r	knee_angle_r_beta	ankle_angle_r	subtalar_angle_r	mtp_angle_r	hip_flexion_l	hip_adduction_l	hip_rotation_l	knee_angle_l	knee_angle_l_beta	ankle_angle_l	subtalar_angle_l	mtp_angle_l	L5_S1_Flex_Ext	L5_S1_Lat_Bending	L5_S1_axial_rotation	L4_L5_Flex_Ext	L4_L5_Lat_Bending	L4_L5_axial_rotation	L3_L4_Flex_Ext	L3_L4_Lat_Bending	L3_L4_axial_rotation	L2_L3_Flex_Ext	L2_L3_Lat_Bending	L2_L3_axial_rotation	L1_L2_Flex_Ext	L1_L2_Lat_Bending	L1_L2_axial_rotation	L1_T12_Flex_Ext	L1_T12_Lat_Bending	L1_T12_axial_rotation	Abs_r3	Abs_r2	Abs_r1	Abs_t1	Abs_t2	neck_flexion	neck_bending	neck_rotation	arm_flex_r	arm_add_r	arm_rot_r	elbow_flex_r	pro_sup_r	wrist_flex_r	wrist_dev_r	arm_flex_l	arm_add_l	arm_rot_l	elbow_flex_l	pro_sup_l	wrist_flex_l	wrist_dev_l
      0.00000000	      1.50869237	     -5.68553232	     95.11894722	      0.18798888	      1.02452193	      0.48669575	      1.40483485	     -3.93724656	    -16.52431281	     15.16122383	      0.26461327	     38.69302798	     11.61315345	      0.00000000	      0.96231860	     -1.31114346	      7.50340076	     14.81568288	      0.25858245	     38.15883767	      5.84349670	      0.00000000	      0.05501314	     -0.10203177	     -0.31733967	      0.10216490	     -0.13570225	     -0.33717339	      0.09038108	     -0.24808003	     -0.33717339	      0.06287451	     -0.24808003	     -0.27767221	      0.05108520	     -0.20806318	     -0.25783848	      0.03143451	     -0.15804720	     -0.23800475	      0.39295334	     -1.15420373	     -1.76494802	      0.00000000	      0.00000000	     28.09442638	     -0.29162732	     -4.06585603	     11.98022350	    -40.43094584	     73.58002499	     15.51295595	     10.94813670	      3.34663884	     -0.38645342	      8.48985492	    -45.68466347	     91.27203985	      8.06838051	     16.21806741	      4.19538169	      4.91646185
      0.01694915	      1.56572545	     -5.62281492	     93.53959857	      0.18905470	      1.02565145	      0.48733890	      1.95695533	     -4.03421983	    -15.85429533	     15.71405674	      0.27426203	     37.68311043	     11.34669082	      0.00000000	      1.04889084	     -1.18526805	      7.19010448	     15.24442088	      0.26606534	     37.86668597	      5.01762224	      0.00000000	      0.02179049	     -0.03081112	     -0.01682867	      0.04046712	     -0.04097880	     -0.01788046	      0.03579960	     -0.07491417	     -0.01788046	      0.02490435	     -0.07491417	     -0.01472509	      0.02023465	     -0.06283005	     -0.01367330	      0.01245109	     -0.04772643	     -0.01262150	      0.15564730	     -0.34854161	     -0.09359602	      0.00000000	      0.00000000	     27.88936123	     -1.08071539	     -3.22906999	     12.71969791	    -41.67120390	     72.87632300	     14.57329244	     10.15923661	      3.04266302	     -1.98428219	      9.30202357	    -45.99292746	     90.67425623	      7.92838462	     15.58547462	      3.58954984	      3.61727478
      0.03389831	      1.46644833	     -5.49929772	     91.94006236	      0.19066838	      1.02650379	      0.48768144	      2.40866371	     -3.95440942	    -13.17248705	     16.12888068	      0.28150207	     36.73252516	      8.83153837	      0.00000000	      0.91694223	     -0.88240192	      7.23809721	     15.45860620	      0.26980358	     37.50697994	      3.51118418	      0.00000000	     -0.00918610	      0.00219560	      0.28562722	     -0.01705951	      0.00292014	      0.30347892	     -0.01509185	      0.00533838	      0.30347892	     -0.01049880	      0.00533838	      0.24992382	     -0.00853021	      0.00447726	      0.23207211	     -0.00524894	      0.00340098	      0.21422041	     -0.06561541	      0.02483704	      1.58857289	      0.00000000	      0.00000000	     27.67195858	     -1.74832642	     -2.74394907	     13.73709981	    -42.33713519	     77.05577157	     12.62493909	      8.18536292	      3.02730967	     -3.09689656	     10.00333802	    -46.50486794	     90.42401330	      8.08929248	     15.10720525	      2.68751660	      3.09006814
      0.05084746	      1.35600521	     -5.44139937	     91.46863209	      0.19105578	      1.02683629	      0.48762880	      2.55805650	     -4.11179700	    -13.22965996	     16.34656773	      0.28530143	     36.30570715	      8.84653059	      0.00000000	      1.00159727	     -0.69770404	      7.29188947	     15.79549324	      0.27568336	     37.55355400	      3.50497597	      0.00000000	     -0.01525948	      0.02020326	      0.38598515	     -0.02833838	      0.02687033	      0.41010922	     -0.02506980	      0.04912220	      0.41010922	     -0.01744006	      0.04912220	      0.33773701	     -0.01416995	      0.04119849	      0.31361293	     -0.00871927	      0.03129485	      0.28948886	     -0.10899694	      0.22854331	      2.14673361	      0.00000000	      0.00000000	     27.50475554	     -2.30689623	     -2.22823877	     13.83600647	    -42.95329450	     77.25908972	     11.44729718	      8.24822713	      2.56780013	     -3.02850435	     10.51871234	    -47.06172090	     90.39583061	      8.20519278	     15.08232483	      2.49515803	      2.97959026
      0.06779661	      1.21179218	     -5.44827229	     89.86932427	      0.19295311	      1.02681946	      0.48756378	      3.06191146	     -4.12561040	    -11.08142745	     16.75888200	      0.29249767	     36.16694754	      7.86348118	      0.00000000	      0.94654147	     -0.41968270	      6.74923789	     15.96820856	      0.27869781	     37.46666178	      2.37114103	      0.00000000	     -0.00905350	      0.02645525	      0.68016844	     -0.01681325	      0.03518548	      0.72267897	     -0.01487399	      0.06432329	      0.72267897	     -0.01034724	      0.06432329	      0.59514738	     -0.00840708	      0.05394754	      0.55263686	     -0.00517317	      0.04097918	      0.51012633	     -0.06466824	      0.29926707	      3.78289281	      0.00000000	      0.00000000	     27.47343760	     -2.86592579	     -2.16080395	     14.40883525	    -43.03258279	     85.43563506	      8.98043398	      4.40313551	      2.82719644	     -3.38420192	     11.12219365	    -47.74900798	     91.84726838	      8.83764961	     15.16681004	      1.26652454	      3.37097823
      0.08474576	      1.14418367	     -5.41597909	     89.27746964	      0.19356891	      1.02663460	      0.48729702	      3.18396872	     -4.21730064	    -10.89971556	     16.89995404	      0.29495984	     36.25392318	      8.40808357	      0.00000000	      0.96212920	     -0.28791261	      6.56694339	     16.21518174	      0.28300831	     37.56774584	      2.02643103	      0.00000000	     -0.00315614	      0.03644623	      0.79038192	     -0.00586128	      0.04847348	      0.83978079	     -0.00518523	      0.08861536	      0.83978079	     -0.00360716	      0.08861536	      0.69158418	     -0.00293080	      0.07432115	      0.64218531	     -0.00180342	      0.05645521	      0.59278644	     -0.02254402	      0.41228701	      4.39586714	      0.00000000	      0.00000000	     27.50643666	     -3.29628326	     -1.89301213	     14.13440408	    -43.40524960	     86.07470313	      8.13507345	      4.15768030	      2.47440348	     -2.88068395	     11.71858464	    -48.31501841	     93.47389761	      9.28189633	     16.24966045	      0.55807946	      4.13878873
      0.10169492	      1.09305387	     -5.42678816	     89.04031673	      0.19381260	      1.02622781	      0.48675381	      3.18962447	     -4.23632531	    -10.74704746	     16.84735807	      0.29404187	     36.45069614	      8.51109816	      0.00000000	      1.03116519	     -0.20563158	      6.43725793	     16.46688639	      0.28740139	     37.79050830	      1.80425653	      0.00000000	      0.01334467	      0.04570562	      0.78768672	      0.02478238	      0.06078848	      0.83691714	      0.02192395	      0.11112866	      0.83691714	      0.01525162	      0.11112866	      0.68922588	      0.01239186	      0.09320291	      0.63999546	      0.00762514	      0.07079801	      0.59076504	      0.09531963	      0.51703117	      4.38087724	      0.00000000	      0.00000000	     27.55036913	     -3.71313197	     -1.37434594	     14.06882281	    -43.60602762	     86.15652513	      7.63985188	      4.18912074	      2.27536771	     -2.60133073	     11.79709508	    -48.82936302	     94.07633681	      9.48436674	     16.77587957	      0.49728532	      4.65387415
      0.11864407	      1.05577904	     -5.39645355	     88.56801160	      0.19434582	      1.02594731	      0.48683224	      3.28868371	     -4.26217722	    -10.35187760	     16.92632554	      0.29542011	     36.52992992	      8.72104214	      0.00000000	      1.00265739	     -0.07180946	      6.60458316	     16.61700654	      0.29002148	     37.50762315	      0.57163810	      0.00000000	      0.01064001	      0.04785789	      0.91485110	      0.01975955	      0.06365099	      0.97202929	      0.01748047	      0.11636167	      0.97202929	      0.01216046	      0.11636167	      0.80049471	      0.00988031	      0.09759180	      0.74331652	      0.00607970	      0.07413187	      0.68613832	      0.07600050	      0.54137798	      5.08812735	      0.00000000	      0.00000000	     27.62989346	     -3.88750077	     -1.49524787	     13.65742868	    -43.77369525	     86.89450523	      7.26599144	      3.64680261	      2.51669754	     -2.63393156	     14.27428020	    -48.96241061	    104.70808983	      8.79384325	     25.84468518	      0.83064520	      4.41484749
      0.13559322	      1.01227191	     -5.43782200	     88.47021150	      0.19464191	      1.02553612	      0.48672596	      3.31955100	     -4.27766201	    -10.28010186	     16.83460432	      0.29381927	     36.75430342	      8.86198396	      0.00000000	      1.09522726	     -0.00429131	      6.64473936	     16.82676611	      0.29368247	     37.30097811	     -0.17775701	      0.00000000	      0.01866391	      0.04929392	      0.91272248	      0.03466075	      0.06556091	      0.96976763	      0.03066294	      0.11985324	      0.96976763	      0.02133098	      0.11985324	      0.79863217	      0.01733131	      0.10052016	      0.74158701	      0.01066456	      0.07635628	      0.68454186	      0.13331444	      0.55762268	      5.07628860	      0.00000000	      0.00000000	     27.67624782	     -3.88614884	     -1.07861966	     13.62685242	    -43.73920263	     86.18837584	      7.36292439	      3.79828324	      2.62780139	     -2.58823874	     16.96139595	    -48.39053945	    131.55758474	      7.11363239	     21.32765816	      1.87151802	      2.14673672
      0.15254237	      1.03796396	     -5.49331570	     88.49661571	      0.19473192	      1.02526219	      0.48677952	      3.36175151	     -4.22550196	    -10.23177182	     16.72576691	      0.29191970	     36.93564234	      8.90487126	      0.00000000	      1.12840058	     -0.06344039	      6.42057841	     16.83082875	      0.29375338	     37.22181836	     -0.35508644	      0.00000000	      0.02335816	      0.05732302	      0.88123149	      0.04337843	      0.07623961	      0.93630846	      0.03837512	      0.13937519	      0.93630846	      0.02669604	      0.13937519	      0.77107756	      0.02169038	      0.11689310	      0.71600059	      0.01334685	      0.08879336	      0.66092362	      0.16684497	      0.64844945	      4.90114520	      0.00000000	      0.00000000	     27.66435070	     -4.00370946	     -0.91969247	     13.85599782	    -43.51466763	     86.14610864	      7.42541207	      3.76307393	      2.64748967	     -2.60195672	     17.25925019	    -48.54224345	    131.70735501	      6.92319105	     21.49602497	      1.81029067	      2.19008772
      0.16949153	      1.10496732	     -5.52509996	     88.66319893	      0.19435522	      1.02511873	      0.48656347	      3.20263816	     -4.17905184	    -10.67286296	     16.34173295	      0.28521705	     37.13683929	      9.48171341	      0.00000000	      1.25402072	     -0.06718753	      6.69466794	     17.08592355	      0.29820562	     36.95329300	     -1.19397694	      0.00000000	      0.02846686	      0.07764645	      0.85492852	      0.05286581	      0.10326978	      0.90836155	      0.04676820	      0.18878958	      0.90836155	      0.03253477	      0.18878958	      0.74806246	      0.02643433	      0.15833665	      0.69462942	      0.01626596	      0.12027435	      0.64119639	      0.20333593	      0.87835220	      4.75485596	      0.00000000	      0.00000000	     27.73792586	     -4.11101780	     -0.34359820	     13.90438680	    -43.25160691	     84.72112684	      7.56091979	      3.83305073	      2.60585570	     -2.02313017	     18.62582264	    -48.22394341	    138.23150625	      6.78805843	     28.08689234	      1.50678329	      1.23804203
